<?xml version="1.0" encoding="utf-8"?>
<!DOCTYPE svg PUBLIC "-//W3C//DTD SVG 1.1//EN" "http://www.w3.org/Graphics/SVG/1.1/DTD/svg11.dtd">
<svg version="1.1" xmlns="http://www.w3.org/2000/svg" xmlns:xlink="http://www.w3.org/1999/xlink" x="0px" y="0px" viewBox="0 0 256 256" enable-background="new 0 0 256 256" xml:space="preserve">
<g><g><g><path fill="#0074FD" d="M123.3,39.1c-2.9,0.9-7.8,6-8.7,9c-1.7,5.5-0.5,9.9,3.7,14.2c3.8,3.9,7.7,5,13.1,3.8c6-1.3,10.8-7.5,10.8-13.9c0-3.4-1.4-6.4-4.4-9.4C133.6,38.6,128.8,37.4,123.3,39.1z M131.2,49.2c0.9,0.9,1.5,2.1,1.5,3.2c0,1.1-0.5,2.4-1.5,3.2c-2.9,3-8,0.9-8-3.2c0-2.4,2.3-4.7,4.7-4.7C129.1,47.8,130.4,48.3,131.2,49.2z"/><path fill="#0074FD" d="M38.3,58c-2.9,0.9-7.8,6-8.7,9c-1.7,5.5-0.5,10,3.7,14.2c2.4,2.4,3.7,3.2,6.1,3.8c9.1,2.2,17.8-4.6,17.8-13.9c0-3.4-1.4-6.4-4.4-9.4C48.7,57.4,43.8,56.3,38.3,58z M46.3,68.1c3,2.9,0.9,8-3.2,8c-2.4,0-4.7-2.3-4.7-4.7c0-2.4,2.3-4.7,4.7-4.7C44.2,66.6,45.4,67.2,46.3,68.1z"/><path fill="#0074FD" d="M208.2,58c-2.9,0.9-7.8,6-8.7,9c-1.7,5.5-0.5,10,3.7,14.2c2.4,2.4,3.7,3.2,6.1,3.8c9.1,2.2,17.8-4.6,17.8-13.9c0-3.4-1.4-6.4-4.4-9.4C218.6,57.4,213.7,56.3,208.2,58z M216.2,68.1c0.9,0.9,1.5,2.1,1.5,3.2s-0.5,2.4-1.5,3.2c-0.9,0.9-2.1,1.5-3.2,1.5c-1.1,0-2.4-0.5-3.2-1.5c-0.9-0.9-1.5-2.1-1.5-3.2s0.5-2.4,1.5-3.2c0.9-0.9,2.1-1.5,3.2-1.5C214.1,66.6,215.3,67.2,216.2,68.1z"/><path fill="#0074FD" d="M123.3,83.2V95H98.4h-25l-6.3-6.3l-6.4-6.4l-3.4,3.4L54,89.1l6.4,6.4l6.3,6.3v25v24.9H54.8H43v4.7v4.7h11.8h11.8v28.3v28.3H128h61.4v-28.3V161h11.8H213v-4.7v-4.7h-11.8h-11.8v-24.9v-25l6.3-6.3l6.4-6.4l-3.4-3.4l-3.4-3.4l-6.4,6.4l-6.3,6.3h-25h-24.9V83.2V71.4H128h-4.7V83.2z M179.9,156.3v51.9H128H76.1v-51.9v-51.9H128h51.9V156.3z"/><path fill="#0074FD" d="M146.9,165.8v33h4.7h4.7v-33v-33h-4.7h-4.7V165.8z"/><path fill="#0074FD" d="M128,175.2v23.6h4.7h4.7v-23.6v-23.6h-4.7H128V175.2z"/><path fill="#0074FD" d="M109.1,187v11.8h4.7h4.7V187v-11.8h-4.7h-4.7V187z"/><path fill="#0074FD" d="M19.4,142.9c-2.9,0.9-7.8,6-8.7,9c-1.7,5.5-0.5,10,3.7,14.1c6,6,13.5,6,19.5,0c6-6,6-13.5,0-19.5C29.8,142.4,24.9,141.2,19.4,142.9z M27.4,153.1c0.9,0.9,1.5,2.1,1.5,3.2c0,1.1-0.5,2.4-1.5,3.2c-0.9,0.9-2.1,1.5-3.2,1.5c-1.1,0-2.4-0.5-3.2-1.5c-0.9-0.9-1.5-2.1-1.5-3.2c0-1.1,0.5-2.4,1.5-3.2c0.9-0.9,2.1-1.5,3.2-1.5C25.3,151.6,26.5,152.1,27.4,153.1z"/><path fill="#0074FD" d="M227.1,142.9c-2.9,0.9-7.8,6-8.7,9c-1.7,5.5-0.5,10,3.7,14.1c4.1,4.2,8.6,5.4,14.1,3.7c3.2-0.9,8.1-5.8,9.1-9.1c1.7-5.5,0.5-10-3.7-14.1C237.4,142.4,232.6,141.2,227.1,142.9z M235.1,153.1c3,2.9,0.9,8-3.2,8c-2.4,0-4.7-2.3-4.7-4.7c0-2.4,2.3-4.7,4.7-4.7C233,151.6,234.2,152.1,235.1,153.1z"/></g></g></g>
</svg>