<svg xmlns="http://www.w3.org/2000/svg" xmlns:xlink="http://www.w3.org/1999/xlink" width="512" height="512" x="0" y="0" viewBox="0 0 512 512" style="enable-background:new 0 0 512 512" xml:space="preserve" class=""><g><path d="M205.07 58.93C203.21 57.07 200.63 56 198 56s-5.21 1.069-7.07 2.93C189.07 60.79 188 63.37 188 66s1.07 5.21 2.93 7.069C192.79 74.93 195.37 76 198 76s5.21-1.07 7.07-2.931C206.93 71.21 208 68.63 208 66s-1.07-5.21-2.93-7.07zM161.048 56h-40.173c-5.523 0-10 4.478-10 10s4.477 10 10 10h40.173c5.523 0 10-4.478 10-10s-4.477-10-10-10zM169.069 112h-48.194c-5.523 0-10 4.478-10 10s4.477 10 10 10h48.194c5.523 0 10-4.478 10-10s-4.477-10-10-10z" fill="#fff" opacity="1" data-original="#000000" class=""></path><path d="m508.14 208.118.004-.008-66-51.397c-.047-.036-.097-.065-.144-.101V146c0-5.522-4.477-10-10-10s-10 4.478-10 10v135.667c0 .061.008.12.009.181l-82.745 82.745-9.581-8.703c-14.974-13.604-33.221-22.673-52.776-26.462l25.964-25.964c3.905-3.905 3.905-10.237 0-14.143l-33.59-33.591 146.384-62.408a10.002 10.002 0 0 0 3.149-16.271l-47.799-47.8c4.046-6.603 6.215-14.207 6.215-22.147 0-11.354-4.421-22.027-12.449-30.056-8.028-8.028-18.702-12.449-30.056-12.449-7.94 0-15.544 2.169-22.147 6.215l-47.8-47.8a10 10 0 0 0-16.272 3.153l-67.391 158.275-36.272 36.271c-10.192 10.192-15.806 23.744-15.806 38.158s5.614 27.965 15.806 38.157c10.192 10.192 23.744 15.806 38.158 15.806s27.965-5.613 38.157-15.806l3.814-3.814 34.254 34.254c-1.074-.031-2.15-.053-3.228-.053-27.305 0-53.473 10.111-73.684 28.472l-9.581 8.703-82.745-82.745c.001-.061.009-.12.009-.182V20h111.987c5.523 0 10-4.478 10-10s-4.477-10-10-10H80c-5.523 0-10 4.478-10 10v145.014c-.086.065-.177.121-.261.189l-66 53 .002.005A9.975 9.975 0 0 0 0 216v245c0 28.121 22.878 51 51 51h410c28.122 0 51-22.879 51-51V216a9.973 9.973 0 0 0-3.86-7.882zM442 181.949l44.924 34.984L442 261.857v-79.908zM334.726 84.601a22.359 22.359 0 0 1 15.914 6.592 22.356 22.356 0 0 1 6.591 15.913c0 2.48-.42 4.891-1.187 7.176L327.55 85.787a22.51 22.51 0 0 1 7.176-1.186zm-73.618-36.972 43.55 43.55a.174.174 0 0 1 .012.014c.004.005.009.008.014.012l45.955 45.955.001.002.002.001 43.566 43.566-21.23 9.051L252.065 68.867l9.043-21.238zm-17.49 41.077 109.528 109.528-99.104 42.252-52.637-52.637 42.213-99.143zm-36.6 194.182c-6.414 6.415-14.943 9.948-24.015 9.948-9.072 0-17.601-3.533-24.016-9.948-6.415-6.414-9.948-14.943-9.948-24.015s3.533-17.601 9.948-24.016l30.571-30.571 48.029 48.034-30.569 30.568zm32.098-3.814 12.612-12.611 29.93 29.93-12.612 12.611-29.93-29.93zM70 180.643v81.215l-45.043-45.043L70 180.643zM37.331 487.599c-.283.257-.544.53-.791.81C26.713 483.204 20 472.874 20 461V240.143l137.915 137.914L37.331 487.599zM62.23 492l33.024-30h73.403c5.523 0 10-4.478 10-10s-4.477-10-10-10H117.27l78.495-71.308c34.34-31.195 86.131-31.195 120.471 0L449.77 492H62.23zM492 461c0 11.874-6.713 22.204-16.54 27.409a10.055 10.055 0 0 0-.791-.81L354.086 378.057 492 240.143V461zM439.467 3.324c-3.905-3.904-10.237-3.904-14.142 0L384.929 43.72c-3.905 3.905-3.905 10.237 0 14.143A9.972 9.972 0 0 0 392 60.792a9.97 9.97 0 0 0 7.071-2.929l40.396-40.396c3.905-3.905 3.905-10.237 0-14.143zM354.412 0c-5.523 0-10 4.478-10 10v20.087c0 5.522 4.477 10 10 10s10-4.478 10-10V10c0-5.522-4.477-10-10-10zM432.688 77.521h-20.759c-5.523 0-10 4.478-10 10s4.477 10 10 10h20.759c5.523 0 10-4.478 10-10s-4.477-10-10-10z" fill="#fff" opacity="1" data-original="#000000" class=""></path><path d="M216.73 444.93a10.093 10.093 0 0 0-7.07-2.93c-2.64 0-5.21 1.069-7.08 2.93-1.86 1.86-2.92 4.44-2.92 7.07s1.06 5.21 2.92 7.069c1.87 1.861 4.45 2.931 7.08 2.931s5.2-1.07 7.07-2.931c1.86-1.859 2.93-4.439 2.93-7.069s-1.07-5.21-2.93-7.07z" fill="#fff" opacity="1" data-original="#000000" class=""></path></g></svg>