<svg xmlns="http://www.w3.org/2000/svg" fill="#1A61FF" id="Glyph" height="512" viewBox="0 0 64 64" width="512"><path d="m48.06126 17.84587c3.83038 0 6.94067-3.12249 6.94067-6.94555-.34438-9.2013-13.53193-9.19959-13.88135.00009.00001 3.82297 3.1203 6.94546 6.94068 6.94546z"></path><path d="m59.41232 22.62966c-1.22009-2.26182-3.04027-4.05323-5.22047-5.22414-3.12489 3.21283-9.13651 3.21169-12.26118-.00018-3.2284 1.80343-7.44195 6.00958-5.11058 9.98812.88019 1.46121 2.42031 2.3319 4.12049 2.3319h14.24136c3.54074.11691 5.99866-4.04047 4.23039-7.0957z"></path><path d="m15.91487 17.84587c3.83038 0 6.94067-3.12249 6.94067-6.94555-.34438-9.2013-13.53193-9.19959-13.88135.00009.00001 3.82297 3.1203 6.94546 6.94068 6.94546z"></path><path d="m27.15594 27.39348c2.3279-3.9799-1.87413-8.183-5.11037-9.98799-3.12499 3.21286-9.13662 3.21172-12.26128-.00015-3.2284 1.80343-7.44195 6.00958-5.11058 9.98812.88019 1.46121 2.42031 2.3319 4.12049 2.3319h14.24136c1.71019 0 3.25031-.87069 4.12039-2.33188z"></path><path d="m25.04886 41.17255c0 3.82306 3.12029 6.94555 6.94067 6.94555 9.19562-.35104 9.19234-13.54787-.00009-13.89111-3.82029 0-6.94058 3.11248-6.94058 6.94556z"></path><path d="m38.12012 47.67775c-3.12489 3.21283-9.13651 3.21169-12.26118-.00018-2.1702 1.1711-4.00039 2.96251-5.22054 5.22432-1.77179 3.05467.70157 7.21231 4.23056 7.09562-.00012.00008 14.24124.00008 14.24124.00008 3.54074.11691 5.99866-4.04047 4.23027-7.09576-1.21997-2.26175-3.04015-4.05316-5.22035-5.22408z"></path><path d="m27.21924 19.0568c3.09032-.89067 6.44062-.89067 9.53094 0 .50005-.57046 1.03007-1.10085 1.60013-1.59124-4.08035-1.44115-8.65079-1.43114-12.7312 0 .58007.48036 1.11009 1.01082 1.60013 1.59124z"></path><path d="m14.98808 35.35986c0-1.23102.13002-2.45197.39005-3.63291h-2.04023c-.23 1.19095-.35001 2.40188-.35001 3.63291 0 5.78459 2.65028 11.21892 7.07069 14.76179.39005-.54047.8301-1.04087 1.2901-1.52123-3.98036-3.18254-6.3606-8.04641-6.3606-13.24056z"></path><path d="m48.60129 31.72696c.26003 1.18094.39005 2.40188.39005 3.63291 0 5.19415-2.38023 10.048-6.35058 13.24056.46001.48036.89004.98076 1.2901 1.52123 4.42041-3.55289 7.06067-8.9772 7.06067-14.76179 0-1.23102-.12001-2.44195-.35001-3.63291z"></path></svg>