<svg xmlns="http://www.w3.org/2000/svg" xmlns:xlink="http://www.w3.org/1999/xlink" width="512" height="512" x="0" y="0" viewBox="0 0 512 512" style="enable-background:new 0 0 512 512" xml:space="preserve" class=""><g><path d="m511.627 193.441-45.481-155.74a9.297 9.297 0 0 0-8.925-6.691H54.779a9.297 9.297 0 0 0-8.925 6.691L.373 193.441A9.264 9.264 0 0 0 0 196.046v4.473c0 23.511 11.729 44.321 29.632 56.929v185.384c0 21.04 17.118 38.158 38.158 38.158h376.42c21.04 0 38.158-17.118 38.158-38.158V257.448C500.27 244.841 512 224.032 512 200.52v-4.473c0-.882-.125-1.76-.373-2.606zM265.298 49.606h88.591l17.346 142.324a53.197 53.197 0 0 1-12.972 41.678 53.194 53.194 0 0 1-39.801 17.919c-29.314 0-53.164-23.85-53.164-53.164V49.606zM140.764 191.929 158.11 49.606h88.592v148.756c0 29.314-23.85 53.164-53.165 53.164a53.192 53.192 0 0 1-39.801-17.919 53.201 53.201 0 0 1-12.972-41.678zM18.596 200.52v-3.144L61.75 49.606h77.627l-19.145 157.085c-3.115 25.56-24.881 44.835-50.631 44.835-28.124 0-51.005-22.881-51.005-51.006zM444.21 462.394H67.79c-10.787 0-19.563-8.776-19.563-19.563V266.749a69.287 69.287 0 0 0 21.374 3.372c26.271 0 49.499-14.705 61.328-36.704a71.75 71.75 0 0 0 8.885 12.519 71.802 71.802 0 0 0 53.723 24.185c26.758 0 50.125-14.731 62.463-36.498 12.338 21.768 35.705 36.498 62.461 36.498a71.806 71.806 0 0 0 53.723-24.185 71.675 71.675 0 0 0 8.885-12.519c11.828 21.999 35.058 36.704 61.328 36.704a69.287 69.287 0 0 0 21.374-3.372v176.082h.001c.001 10.787-8.775 19.563-19.562 19.563zm49.194-261.874c0 28.125-22.881 51.005-51.007 51.005-25.75 0-47.516-19.275-50.631-44.835L372.623 49.606h77.627l43.154 147.771v3.143z" fill="#ffffff" opacity="1" data-original="#000000" class=""></path><path d="M432.754 367.297H380.04a9.298 9.298 0 0 0 0 18.596h42.414c-4.267 19.488-21.664 34.118-42.414 34.118-23.94 0-43.416-19.476-43.416-43.416 0-23.94 19.476-43.417 43.416-43.417 11.597 0 22.499 4.516 30.7 12.717a9.299 9.299 0 0 0 13.15-13.15c-11.713-11.713-27.285-18.163-43.85-18.163-34.194 0-62.012 27.819-62.012 62.013s27.818 62.012 62.012 62.012 62.011-27.818 62.011-62.012a9.297 9.297 0 0 0-9.297-9.298z" fill="#ffffff" opacity="1" data-original="#000000" class=""></path></g></svg>