<svg xmlns="http://www.w3.org/2000/svg" xmlns:xlink="http://www.w3.org/1999/xlink" width="512" height="512" x="0" y="0" viewBox="0 0 100 100" style="enable-background:new 0 0 512 512" xml:space="preserve" class=""><g><path d="M95 26.3c0-11.7-9.6-21.2-21.3-21.2s-21.3 9.5-21.3 21.2c0 .6 0 1.3.1 1.9-6.3.2-12.4 2.7-16.8 7.2-6.3 6.3-8.7 15.6-6.3 24.1-2-.7-4.1-1.2-6.3-1.2-9.9 0-18 8.1-18 18s8.1 18 18 18 18-8.1 18-18c0-.7 0-1.4-.1-2 3.8 2.1 8 3.3 12.3 3.3 2.3 0 4.6-.3 6.9-1l3 9.9c.2.6.7 1 1.4 1.1h.1c.6 0 1.1-.4 1.4-.9l3.6-8.4 5.5 5.5c.6.6 1.5.6 2.1 0l7-6.9c.3-.3.4-.7.4-1.1s-.2-.8-.4-1.1l-5.5-5.5 8.4-3.6c.6-.2.9-.8.9-1.5 0-.6-.5-1.2-1.1-1.4l-10-3c1.2-4.1 1.3-8.4.3-12.5C87.3 45.6 95 36.9 95 26.3zM64.5 45.5c2.2 3.3 2.8 7.3 1.7 11.1l-4.9-1.5c.8-2.9 0-6-2.2-8.1-3.3-3.3-8.7-3.3-12 0-1.6 1.6-2.5 3.7-2.5 6s.9 4.4 2.5 6 3.8 2.5 6 2.5c.7 0 1.4-.1 2.2-.3l1.5 4.9c-4.7 1.3-9.8 0-13.3-3.5-2.6-2.6-4-6-4-9.6s1.4-7 4-9.6c3.6-3.6 9.1-4.9 13.9-3.3 2 2.2 4.4 4.1 7.1 5.4zm-9.1 7.7c-.5-.2-1.1 0-1.5.4s-.5 1-.4 1.5l.9 3.1c-1.8.4-3.8-.1-5.1-1.4-1-1-1.6-2.4-1.6-3.9s.6-2.8 1.6-3.8c2.1-2.1 5.6-2.1 7.7 0 1.4 1.4 1.9 3.3 1.4 5.1zM23 91.3c-8.3 0-15-6.7-15-15s6.7-15 15-15 15 6.7 15 15-6.7 15-15 15zM39.9 70c-1.3-3.4-3.6-6.4-6.6-8.5-3.5-8.1-1.8-17.7 4.5-24 4-4 9.5-6.3 15.2-6.3.4 1.8 1.1 3.6 2 5.2-4.9-.5-10 1.2-13.6 4.7-3.1 3.1-4.9 7.3-4.9 11.7s1.7 8.6 4.9 11.7c3.2 3.2 7.4 4.9 11.7 4.9 1.5 0 3-.2 4.5-.6l1.5 4.9c-6.5 1.9-13.8.6-19.2-3.7zm35.5-2.6c-.5.2-.8.6-.9 1.1s.1 1 .4 1.3l6 6-4.8 4.8-6-6c-.4-.4-.9-.5-1.3-.4-.5.1-.9.4-1.1.9l-2.9 6.6-2.3-7.5-5.3-17.3 1.8.5 15.5 4.7 7.5 2.3zM74 58.9l-4.9-1.5c1-3.5.8-7.2-.5-10.5 1.6.4 3.3.6 5 .6h.5c1.1 3.8 1 7.7-.1 11.4zm-.3-14.3c-10.1 0-18.3-8.2-18.3-18.2 0-10.1 8.2-18.2 18.3-18.2C83.8 8.1 92 16.3 92 26.3c0 10.1-8.2 18.3-18.3 18.3z" fill="#1A61FF" opacity="1" data-original="#000000" class=""></path><path d="M74.1 24.8h-.8c-1.3 0-2.4-1.1-2.4-2.4 0-.6.3-1.2.7-1.7.5-.5 1.1-.7 1.7-.7h4.6c.8 0 1.5-.7 1.5-1.5s-.7-1.5-1.6-1.5h-2.5v-2.3c0-.8-.7-1.5-1.5-1.5s-1.5.7-1.5 1.5v2.4c-1.1.2-2 .7-2.8 1.5-1 1-1.6 2.4-1.6 3.8 0 3 2.4 5.4 5.4 5.4h.8c1.3 0 2.4 1.1 2.4 2.4s-1.1 2.4-2.4 2.4h-4.7c-.8 0-1.5.7-1.5 1.5s.7 1.5 1.5 1.5h2.9V38c0 .8.7 1.5 1.5 1.5s1.5-.7 1.5-1.5v-2.4c2.4-.5 4.2-2.7 4.2-5.3 0-3-2.4-5.5-5.4-5.5zM36.8 24.9c5 0 9-4 9-9s-4-9-9-9-9 4-9 9 4 9 9 9zm0-15c3.3 0 6 2.7 6 6s-2.7 6-6 6-6-2.7-6-6 2.6-6 6-6zM15.9 46.7A6.7 6.7 0 1 0 9.2 40c.1 3.7 3 6.7 6.7 6.7zm0-10.4c2 0 3.7 1.6 3.7 3.7 0 2-1.6 3.7-3.7 3.7S12.3 42 12.3 40s1.6-3.7 3.6-3.7zM23.4 74.8h-.7c-1 0-1.8-.8-1.8-1.8s.8-1.8 1.8-1.8h3.8c.8 0 1.5-.7 1.5-1.5s-.7-1.5-1.5-1.5h-1.9v-1.7c0-.8-.7-1.5-1.5-1.5s-1.5.7-1.5 1.5v1.8c-2.1.5-3.7 2.4-3.7 4.6 0 2.6 2.1 4.8 4.8 4.8h.7c1 0 1.8.8 1.8 1.8s-.8 1.8-1.8 1.8h-3.9c-.8 0-1.5.7-1.5 1.5s.7 1.5 1.5 1.5h2.2V86c0 .8.7 1.5 1.5 1.5s1.5-.7 1.5-1.5v-1.8c2-.6 3.5-2.4 3.5-4.6-.1-2.6-2.2-4.8-4.8-4.8zM51 82.4c-3.5 0-6.3 2.8-6.3 6.3S47.5 95 51 95s6.3-2.8 6.3-6.3-2.9-6.3-6.3-6.3zm0 9.5c-1.8 0-3.3-1.5-3.3-3.3s1.5-3.3 3.3-3.3 3.3 1.5 3.3 3.3-1.5 3.3-3.3 3.3z" fill="#1A61FF" opacity="1" data-original="#000000" class=""></path></g></svg>