<svg xmlns="http://www.w3.org/2000/svg" xmlns:xlink="http://www.w3.org/1999/xlink" width="512" height="512" x="0" y="0" viewBox="0 0 512 512" style="enable-background:new 0 0 512 512" xml:space="preserve" class=""><g><path d="M196.147 186.051c0 2.125.847 4.163 2.351 5.664 18.834 18.801 43.826 29.156 70.372 29.156 54.886 0 99.539-44.653 99.539-99.539s-44.653-99.538-99.539-99.538a8.008 8.008 0 0 0-8.008 8.008v88.213l-62.369 62.37a8.007 8.007 0 0 0-2.346 5.666zm155.865-72.727h-75.134V38.19c39.676 3.792 71.343 35.458 75.134 75.134zm-79.825 16.016h79.814c-4.044 42.311-39.778 75.515-83.131 75.515-19.587 0-38.171-6.723-53.12-19.078l56.437-56.438zm-94.028 51.109h.003a8.008 8.008 0 0 0 5.662-2.345l64.715-64.715a8.009 8.009 0 0 0 2.346-5.663V16.195a8.008 8.008 0 0 0-8.008-8.008c-54.87 0-99.51 44.653-99.51 99.539 0 26.565 10.345 51.558 29.128 70.373a8.007 8.007 0 0 0 5.664 2.35zm56.71-155.865v79.825l-56.437 56.436c-12.337-14.936-19.05-33.518-19.05-53.119 0-43.354 33.189-79.098 75.486-83.142zM435.18 291.511h-56.098c-6.541 0-11.863 5.321-11.863 11.862v188.958c0 6.541 5.322 11.862 11.863 11.862h56.098c6.541 0 11.862-5.321 11.862-11.862V303.373c0-6.541-5.321-11.862-11.862-11.862zm-4.153 196.667h-47.792V307.527h47.792zM233.863 332.982h-56.098c-6.541 0-11.862 5.321-11.862 11.862v147.487c0 6.541 5.321 11.862 11.862 11.862h56.098c6.541 0 11.863-5.321 11.863-11.862V344.844c0-6.541-5.322-11.862-11.863-11.862zm-4.152 155.196h-47.792V348.997h47.792zm104.811-113.754h-56.097c-6.541 0-11.863 5.322-11.863 11.863v106.044c0 6.541 5.322 11.862 11.863 11.862h56.097c6.541 0 11.863-5.321 11.863-11.862V386.287c0-6.541-5.322-11.863-11.863-11.863zm-4.152 113.754h-47.792V390.44h47.792zm-197.164-72.312H77.108c-6.541 0-11.862 5.322-11.862 11.863v64.602c0 6.541 5.321 11.862 11.862 11.862h56.098c6.541 0 11.863-5.321 11.863-11.862v-64.602c0-6.541-5.322-11.863-11.863-11.863zm-4.152 72.312H81.262v-56.296h47.792zm177.095-137.877c21.984 0 39.869-17.897 39.869-39.897a39.63 39.63 0 0 0-6.604-21.941l46.176-46.176a39.596 39.596 0 0 0 21.075 6.052c21.984 0 39.869-17.898 39.869-39.897s-17.885-39.869-39.869-39.869-39.869 17.885-39.869 39.869a39.683 39.683 0 0 0 7.184 22.806l-45.89 45.891a39.63 39.63 0 0 0-21.941-6.604c-12.728 0-24.073 6.002-31.377 15.316l-30.544-15.182a39.8 39.8 0 0 0 1.274-10.013c0-21.984-17.885-39.87-39.869-39.87s-39.869 17.885-39.869 39.87a39.62 39.62 0 0 0 6.216 21.337L127.073 326.9a39.612 39.612 0 0 0-21.956-6.617c-21.984 0-39.869 17.897-39.869 39.897s17.885 39.869 39.869 39.869 39.869-17.885 39.869-39.869a39.677 39.677 0 0 0-6.598-21.948l44.71-44.71a39.642 39.642 0 0 0 22.535 7.002c12.807 0 24.215-6.076 31.514-15.49l30.468 15.144a39.786 39.786 0 0 0-1.335 10.225c0 22 17.885 39.897 39.869 39.897zm-201.033 33.732c-13.153 0-23.854-10.701-23.854-23.854s10.7-23.882 23.854-23.882 23.854 10.714 23.854 23.882-10.7 23.854-23.854 23.854zm100.517-99.524c-13.153 0-23.854-10.7-23.854-23.854s10.7-23.854 23.854-23.854 23.854 10.701 23.854 23.854-10.7 23.854-23.854 23.854zm201.033-99.921c13.153 0 23.854 10.701 23.854 23.854s-10.7 23.882-23.854 23.882-23.854-10.713-23.854-23.882 10.7-23.854 23.854-23.854zM306.149 286.55c13.153 0 23.854 10.7 23.854 23.854s-10.7 23.882-23.854 23.882-23.854-10.714-23.854-23.882 10.7-23.854 23.854-23.854z" fill="#ffffff" opacity="1" data-original="#000000"></path></g></svg>