<?xml version="1.0" encoding="utf-8"?>
<!-- Svg Vector Icons : http://www.onlinewebfonts.com/icon -->
<!DOCTYPE svg PUBLIC "-//W3C//DTD SVG 1.1//EN" "http://www.w3.org/Graphics/SVG/1.1/DTD/svg11.dtd">
<svg version="1.1" xmlns="http://www.w3.org/2000/svg" xmlns:xlink="http://www.w3.org/1999/xlink" x="0px" y="0px" viewBox="0 0 256 256" enable-background="new 0 0 256 256" xml:space="preserve">
<metadata> Svg Vector Icons : http://www.onlinewebfonts.com/icon </metadata>
<g><g><g><path fill="#fff" d="M11.4,19L10,20.3v90.9v90.9l1.4,1.4l1.4,1.4l51.7-0.1l51.8-0.1l1.8-6.6l1.8-6.6l32.9-33c20.5-20.6,34-33.7,35.7-34.8c4.2-2.8,7.4-3.8,12.6-4.1l4.6-0.2v-2v-2.1h16.2H238v10.4V136l2.9-0.3c2-0.2,3.2-0.6,4-1.3l1.1-1V76.6V19.9l-1.2-1.1l-1.1-1.2H128.2H12.7L11.4,19z M50.8,43.9v18.3H34.6H18.4V43.9V25.6h16.2h16.2V43.9z M238,43.9v18.3h-16.2h-16.2V43.9V25.6h16.2H238V43.9z M50.8,88.9v18.3H34.6H18.4V88.9V70.6h16.2h16.2V88.9z M238,88.9v18.3h-16.2h-16.2V88.9V70.6h16.2H238V88.9z M136.2,93.3c12.5,7.9,23.1,14.9,23.6,15.4c1,1.2,1,3.8,0,5c-1.1,1.2-45.8,29.6-47.2,29.9c-1.7,0.5-3.6-0.6-4.3-2.3c-1-2.3-1-57.7,0-60c0.8-1.9,1.9-2.7,3.8-2.5C112.9,78.8,122,84.3,136.2,93.3z M50.8,133.5v18.3H34.6H18.4v-18.3v-18.3h16.2h16.2V133.5z M50.8,178.5v18.3H34.6H18.4v-18.3v-18.3h16.2h16.2V178.5z"/><path fill="#fff" d="M197.7,132.5c-2.3,0.8-4.8,3.2-34.8,33.1l-32.2,32.2l-4.3,15.8c-4,14.6-4.4,15.9-6,17.5c-2,2.2-2.2,4-0.5,5.9c1.6,1.9,4,1.8,6.1-0.2c1.5-1.5,2.9-1.9,17.7-6l16.1-4.4l31.7-31.8c21.9-21.9,32.1-32.5,32.8-33.9c1.5-2.8,1.5-7.8,0.2-10.6c-1.2-2.5-15-16.2-17.4-17.3C204.6,131.6,200.7,131.4,197.7,132.5z M210.8,146.9c9,8.9,8.9,8,0.4,16.5l-6.2,6.2l-8.7-8.7l-8.7-8.7l5.4-5.4c3-3,6.1-5.9,6.8-6.3C202.3,138.9,203.3,139.5,210.8,146.9z M190.5,167l8.5,8.5l-20.8,20.8L157.6,217l-8.7-8.7l-8.7-8.7l20.6-20.6c11.4-11.4,20.7-20.6,20.9-20.6S185.8,162.2,190.5,167z M143.2,214.4c4.2,4.2,6.1,6.4,5.6,6.5c-2.2,0.8-16.6,4.5-16.8,4.4c-0.4-0.2,4.2-17.3,4.6-17.3C136.8,208.1,139.8,211,143.2,214.4z"/></g></g></g>
</svg>